<?xml version="1.0" encoding="UTF-8"?>
<svg id="Layer_1" data-name="Layer 1" xmlns="http://www.w3.org/2000/svg" xmlns:xlink="http://www.w3.org/1999/xlink" viewBox="0 0 280.99 154.08">
  <defs>
    <style>
      .cls-1 {
        fill: url(#linear-gradient-2);
      }

      .cls-2 {
        fill: #f6f9fb;
      }

      .cls-3 {
        fill: url(#linear-gradient);
      }
    </style>
    <linearGradient id="linear-gradient" x1="80.91" y1="95.86" x2="142.19" y2="95.86" gradientTransform="translate(12.14 203.85) rotate(-90)" gradientUnits="userSpaceOnUse">
      <stop offset="0" stop-color="#000"/>
      <stop offset=".25" stop-color="#158bff"/>
      <stop offset="1" stop-color="#000"/>
    </linearGradient>
    <linearGradient id="linear-gradient-2" x1="143.83" y1="103.05" x2="205.11" y2="103.05" gradientUnits="userSpaceOnUse">
      <stop offset="0" stop-color="#158bff"/>
      <stop offset=".53" stop-color="#222328"/>
      <stop offset="1" stop-color="#000"/>
    </linearGradient>
  </defs>
  <circle class="cls-3" cx="108" cy="92.3" r="30.64"/>
  <circle class="cls-1" cx="174.47" cy="103.05" r="30.64"/>
  <g>
    <path class="cls-2" d="M209.27,0c2.2,0,3.13,1.58,2.07,3.5l-61.06,110.48c-1.06,1.93-.13,3.5,2.07,3.5h105.52c2.2,0,4.88,1.57,5.97,3.48l16.71,29.63c1.08,1.92.17,3.48-2.03,3.48H127.27c-5.89-12.02-12.9-23.57-19.16-35.44h0c-.06-.69.75-2.83,1.81-4.76L170.5,3.51c1.06-1.93,3.72-3.51,5.92-3.51h32.85Z"/>
    <path class="cls-2" d="M36.85,0c2.2,0,4.87,1.58,5.93,3.5l81.27,147.08c1.06,1.93.13,3.5-2.07,3.5h-32.85c-2.2,0-4.87-1.57-5.94-3.5L1.94,3.88C.87,1.96,0,.3,0,.19s1.8-.19,4-.19h32.85Z"/>
  </g>
</svg>