<?xml version="1.0" encoding="UTF-8"?>
<svg id="Layer_1" data-name="Layer 1" xmlns="http://www.w3.org/2000/svg" xmlns:xlink="http://www.w3.org/1999/xlink" viewBox="0 0 295.37 178.24">
  <defs>
    <style>
      .cls-1 {
        fill: url(#radial-gradient);
      }

      .cls-2 {
        fill: #b4b9bb;
      }
    </style>
    <radialGradient id="radial-gradient" cx="114.22" cy="100.68" fx="107.88" fy="137.19" r="88.12" gradientTransform="translate(-23.31 -1.68) scale(1.4 1.01)" gradientUnits="userSpaceOnUse">
      <stop offset="0" stop-color="#e8b121"/>
      <stop offset="1" stop-color="#fff" stop-opacity="0"/>
    </radialGradient>
  </defs>
  <ellipse class="cls-1" cx="136.44" cy="99.95" rx="136.44" ry="78.29"/>
  <g>
    <path class="cls-2" d="M222.94,0c2.2,0,3.2,1.61,2.22,3.58l-61.95,125.01c-.98,1.97.02,3.58,2.22,3.58h106.52c2.2,0,4.81,1.61,5.81,3.57l17.21,34.03c.99,1.96,0,3.57-2.19,3.57h-152.6c-5.94-13.52-13.02-26.51-19.33-39.87h0c-.06-.78.68-3.03,1.65-5L183.97,3.59c.97-1.97,3.57-3.59,5.77-3.59h33.21Z"/>
    <path class="cls-2" d="M48.99,0c2.2,0,4.8,1.61,5.78,3.58l82.34,166.18c.98,1.97-.02,3.58-2.22,3.58h-33.21c-2.2,0-4.8-1.61-5.78-3.58L13.56,4.02c-.98-1.97-1.78-3.68-1.78-3.8s1.8-.22,4-.22h33.21Z"/>
  </g>
</svg>